<?xml version="1.0" encoding="utf-8"?>
<!-- Designed by Vexels.com - 2016 All Rights Reserved - https://vexels.com/terms-and-conditions/  -->

<svg version="1.1" id="Layer_1" xmlns="http://www.w3.org/2000/svg" xmlns:xlink="http://www.w3.org/1999/xlink" x="0px" y="0px"
	 width="1200px" height="1200px" viewBox="0 0 1200 1200" enable-background="new 0 0 1200 1200" xml:space="preserve">
<g>
	<path fill="#949397" d="M645.11,909.069l-104.364-60.956c-21.387-12.491-19.327-32.974,4.439-44.108l125.558-58.872l130.828,75.525
		l9.189,5.306l12.976,7.492l-101.607,73.145C702.75,920.555,666.745,921.708,645.11,909.069"/>
	<path fill="#BDB9BB" d="M645.11,901.566L540.746,840.61c-21.387-12.487-19.327-32.963,4.439-44.106l125.558-58.87l152.993,88.331
		l-101.607,73.134C702.75,913.056,666.745,914.205,645.11,901.566"/>
	<path fill="#CECDD0" d="M367.652,61.444l-0.593,0.328l0.007,0.07C367.271,61.717,367.448,61.565,367.652,61.444"/>
	<path fill="#CECDD0" d="M985.881,384.468L418.897,57.12c-14.507-8.378-27.631-9.112-37.042-3.518l-13.08,7.225
		c9.322-4.948,21.987-4.015,35.968,4.054L971.73,392.233c28.627,16.526,51.837,56.556,51.837,89.409v375.775v36.853
		c0,15.488-5.202,26.541-13.658,32.247l12.25-6.544c0.178-0.1,0.363-0.185,0.541-0.285l0.263-0.141l0.011-0.044
		c9.108-5.458,14.744-16.841,14.744-33v-36.853V473.872C1037.718,441.025,1014.508,400.994,985.881,384.468"/>
	<path fill="#9F9A9B" d="M404.743,596.479L971.73,923.828c28.627,16.533,51.837,3.29,51.837-29.558v-36.853L352.905,470.211v36.859
		C352.905,539.919,376.115,579.948,404.743,596.479"/>
	<path fill="#383636" d="M1023.568,481.639c0-32.85-23.21-72.88-51.837-89.41L404.743,64.887
		c-28.627-16.532-51.837-3.298-51.837,29.55v375.775l670.663,387.206V481.639z"/>
	<path fill="#878588" d="M163.952,881.516l161.671-85.597l436.286,230.562v12.072L589.23,1147.408
		c-5.376,3.387-12.205,3.461-17.652,0.185L167.287,904.601C161.724,901.247,161.088,886.867,163.952,881.516"/>
	<path fill="#BDB9BB" d="M167.323,877.792l165.074-97.068l429.513,245.742L589.23,1135.329c-5.376,3.387-12.194,3.453-17.645,0.186
		L167.287,892.521C161.724,889.175,161.742,881.109,167.323,877.792"/>
	<path fill="#FFFFFF" d="M665.578,1053.085l14.14-8.026c1.6-0.911,1.79-2.305,0.407-3.112l-16.333-9.604
		c-1.382-0.815-3.805-0.726-5.406,0.186l-14.143,8.018c-1.608,0.911-1.794,2.305-0.415,3.12l16.337,9.59
		C661.555,1054.071,663.967,1053.99,665.578,1053.085"/>
	<path fill="#FFFFFF" d="M639.797,1037.931l14.14-8.011c1.612-0.912,1.797-2.32,0.418-3.12l-16.337-9.612
		c-1.378-0.8-3.801-0.719-5.406,0.185l-14.151,8.026c-1.6,0.911-1.786,2.305-0.407,3.112l16.337,9.604
		C635.773,1038.924,638.196,1038.842,639.797,1037.931"/>
	<path fill="#FFFFFF" d="M690.741,1038.813l6.799-3.861c1.619-0.911,1.805-2.327,0.415-3.142l-16.663-9.797
		c-1.397-0.823-3.846-0.734-5.465,0.185l-6.799,3.853c-1.63,0.919-1.816,2.335-0.419,3.15l16.667,9.804
		C686.673,1039.813,689.111,1039.739,690.741,1038.813"/>
	<path fill="#FFFFFF" d="M665.382,1023.91l6.803-3.853c1.627-0.919,1.812-2.327,0.415-3.15l-16.663-9.79
		c-1.397-0.823-3.839-0.733-5.458,0.185l-6.799,3.854c-1.63,0.926-1.816,2.327-0.418,3.149l16.663,9.797
		C661.314,1024.911,663.763,1024.836,665.382,1023.91"/>
	<path fill="#FFFFFF" d="M640.034,1009.022l6.803-3.869c1.615-0.919,1.804-2.327,0.415-3.149l-16.663-9.79
		c-1.397-0.823-3.85-0.734-5.465,0.185l-6.803,3.853c-1.627,0.927-1.812,2.327-0.415,3.15l16.663,9.804
		C635.965,1010.015,638.407,1009.933,640.034,1009.022"/>
	<path fill="#FFFFFF" d="M614.679,994.119l6.799-3.861c1.619-0.919,1.804-2.327,0.415-3.15l-16.663-9.797
		c-1.397-0.815-3.839-0.733-5.454,0.186l-6.803,3.868c-1.627,0.919-1.812,2.319-0.426,3.135l16.674,9.804
		C610.61,995.112,613.059,995.038,614.679,994.119"/>
	<path fill="#FFFFFF" d="M589.33,979.216l6.799-3.861c1.619-0.919,1.805-2.327,0.415-3.15l-16.663-9.789
		c-1.397-0.823-3.846-0.734-5.466,0.185l-6.799,3.861c-1.63,0.919-1.816,2.319-0.419,3.142l16.663,9.797
		C585.262,980.209,587.7,980.135,589.33,979.216"/>
	<path fill="#FFFFFF" d="M563.971,964.321l6.803-3.868c1.616-0.912,1.805-2.327,0.415-3.135l-16.663-9.802
		c-1.397-0.815-3.839-0.733-5.458,0.185l-6.803,3.857c-1.627,0.921-1.812,2.336-0.415,3.144l16.663,9.804
		C559.903,965.321,562.352,965.24,563.971,964.321"/>
	<path fill="#FFFFFF" d="M538.623,949.416l6.803-3.857c1.619-0.919,1.805-2.327,0.415-3.15l-16.663-9.79
		c-1.397-0.823-3.846-0.733-5.465,0.186l-6.803,3.857c-1.627,0.919-1.812,2.327-0.415,3.149l16.663,9.79
		C534.555,950.417,536.996,950.335,538.623,949.416"/>
	<path fill="#FFFFFF" d="M513.267,934.521l6.799-3.864c1.619-0.919,1.805-2.327,0.415-3.15l-16.663-9.79
		c-1.397-0.823-3.839-0.734-5.454,0.185l-6.803,3.857c-1.627,0.919-1.812,2.327-0.426,3.15l16.674,9.797
		C509.199,935.521,511.648,935.432,513.267,934.521"/>
	<path fill="#FFFFFF" d="M487.92,919.618l6.799-3.853c1.619-0.923,1.804-2.327,0.415-3.15l-16.663-9.801
		c-1.397-0.815-3.846-0.726-5.465,0.185l-6.799,3.864c-1.63,0.919-1.816,2.327-0.419,3.15l16.663,9.79
		C483.851,920.618,486.289,920.537,487.92,919.618"/>
	<path fill="#FFFFFF" d="M462.56,904.715l6.803-3.857c1.619-0.919,1.805-2.323,0.415-3.146l-16.663-9.793
		c-1.397-0.823-3.839-0.734-5.458,0.185l-6.803,3.857c-1.627,0.919-1.812,2.327-0.423,3.15l16.67,9.789
		C458.492,905.723,460.941,905.634,462.56,904.715"/>
	<path fill="#FFFFFF" d="M437.212,889.824l6.803-3.857c1.616-0.919,1.805-2.334,0.415-3.149l-16.674-9.801
		c-1.386-0.811-3.839-0.733-5.454,0.185l-6.803,3.857c-1.619,0.919-1.812,2.334-0.415,3.15l16.663,9.801
		C433.144,890.82,435.586,890.743,437.212,889.824"/>
	<path fill="#FFFFFF" d="M411.857,874.917l6.799-3.853c1.619-0.919,1.816-2.327,0.415-3.15l-16.663-9.789
		c-1.397-0.823-3.839-0.733-5.466,0.186l-6.799,3.853c-1.619,0.923-1.804,2.327-0.419,3.15l16.674,9.793
		C407.788,875.918,410.237,875.84,411.857,874.917"/>
	<path fill="#FFFFFF" d="M386.509,860.025l6.799-3.864c1.619-0.923,1.805-2.327,0.415-3.142l-16.663-9.797
		c-1.397-0.823-3.846-0.737-5.465,0.185l-6.799,3.854c-1.63,0.922-1.816,2.338-0.419,3.149l16.663,9.801
		C382.44,861.026,384.878,860.944,386.509,860.025"/>
	<path fill="#FFFFFF" d="M361.149,845.123l6.803-3.857c1.627-0.919,1.805-2.325,0.415-3.148l-16.663-9.801
		c-1.397-0.813-3.839-0.724-5.458,0.185l-6.803,3.867c-1.627,0.919-1.812,2.325-0.415,3.147l16.663,9.791
		C357.081,846.12,359.53,846.042,361.149,845.123"/>
	<path fill="#FFFFFF" d="M335.801,830.218l6.803-3.855c1.616-0.919,1.805-2.327,0.415-3.15l-16.663-9.79
		c-1.397-0.823-3.85-0.734-5.465,0.185l-6.803,3.855c-1.627,0.921-1.812,2.327-0.415,3.15l16.663,9.791
		C331.733,831.228,334.175,831.139,335.801,830.218"/>
	<path fill="#FFFFFF" d="M615.023,1023.376l14.14-8.026c1.6-0.911,1.789-2.305,0.407-3.12l-16.333-9.597
		c-1.382-0.815-3.805-0.734-5.406,0.178l-14.143,8.026c-1.608,0.911-1.793,2.305-0.415,3.12l16.336,9.597
		C610.988,1024.362,613.411,1024.288,615.023,1023.376"/>
	<path fill="#FFFFFF" d="M590.242,1008.807l14.14-8.011c1.612-0.911,1.797-2.319,0.415-3.127l-16.344-9.604
		c-1.371-0.8-3.794-0.726-5.403,0.186l-14.143,8.026c-1.608,0.911-1.786,2.305-0.415,3.112l16.344,9.604
		C586.214,1009.8,588.63,1009.719,590.242,1008.807"/>
	<path fill="#FFFFFF" d="M565.457,994.253l14.143-8.026c1.608-0.912,1.793-2.305,0.415-3.12l-16.336-9.597
		c-1.378-0.815-3.802-0.734-5.403,0.178l-14.151,8.026c-1.612,0.911-1.786,2.305-0.407,3.112l16.337,9.597
		C561.433,995.238,563.849,995.157,565.457,994.253"/>
	<path fill="#FFFFFF" d="M540.683,979.683l14.143-8.011c1.6-0.911,1.786-2.319,0.408-3.127l-16.337-9.604
		c-1.378-0.8-3.801-0.726-5.402,0.185l-14.151,8.026c-1.605,0.911-1.79,2.305-0.408,3.112l16.333,9.604
		C536.652,980.676,539.075,980.595,540.683,979.683"/>
	<path fill="#FFFFFF" d="M515.902,965.122l14.143-8.018c1.608-0.912,1.794-2.312,0.407-3.12l-16.336-9.599
		c-1.382-0.815-3.794-0.733-5.406,0.178l-14.14,8.027c-1.612,0.904-1.79,2.297-0.419,3.112l16.348,9.597
		C511.878,966.115,514.294,966.033,515.902,965.122"/>
	<path fill="#FFFFFF" d="M491.121,950.558l14.14-8.015c1.612-0.912,1.797-2.316,0.419-3.12l-16.348-9.608
		c-1.367-0.804-3.794-0.723-5.395,0.189l-14.151,8.022c-1.608,0.908-1.786,2.308-0.408,3.113l16.337,9.604
		C487.097,951.547,489.509,951.469,491.121,950.558"/>
	<path fill="#FFFFFF" d="M466.336,936l14.143-8.022c1.612-0.911,1.797-2.308,0.415-3.123l-16.333-9.597
		c-1.382-0.812-3.805-0.734-5.406,0.178l-14.151,8.033c-1.601,0.908-1.786,2.297-0.408,3.112l16.337,9.597
		C462.312,936.989,464.735,936.911,466.336,936"/>
	<path fill="#FFFFFF" d="M441.562,921.434l14.143-8.015c1.612-0.911,1.797-2.316,0.408-3.124l-16.337-9.604
		c-1.378-0.804-3.802-0.726-5.402,0.185l-14.143,8.022c-1.608,0.911-1.786,2.308-0.415,3.112l16.337,9.608
		C437.538,922.423,439.954,922.341,441.562,921.434"/>
	<path fill="#FFFFFF" d="M416.781,906.876l14.143-8.022c1.608-0.911,1.793-2.308,0.415-3.123l-16.344-9.597
		c-1.371-0.812-3.794-0.734-5.395,0.178l-14.151,8.029c-1.612,0.904-1.786,2.301-0.415,3.112l16.344,9.597
		C412.757,907.865,415.173,907.783,416.781,906.876"/>
	<path fill="#FFFFFF" d="M609.254,1048.35l14.143-8.018c1.612-0.911,1.797-2.312,0.415-3.127l-16.333-9.597
		c-1.382-0.808-3.805-0.734-5.406,0.178l-14.151,8.026c-1.608,0.911-1.786,2.305-0.407,3.12l16.337,9.597
		C605.23,1049.343,607.653,1049.254,609.254,1048.35"/>
	<path fill="#FFFFFF" d="M579.474,1059.199l14.143-8.018c1.601-0.911,1.786-2.312,0.407-3.112l-16.337-9.604
		c-1.378-0.808-3.801-0.726-5.402,0.186l-14.143,8.018c-1.608,0.912-1.794,2.312-0.415,3.113l16.337,9.612
		C575.443,1060.192,577.866,1060.111,579.474,1059.199"/>
	<path fill="#FFFFFF" d="M554.304,1044.415l14.143-8.026c1.608-0.904,1.793-2.305,0.415-3.12l-16.344-9.597
		c-1.371-0.815-3.794-0.726-5.395,0.178l-14.151,8.033c-1.601,0.911-1.786,2.297-0.415,3.112l16.344,9.597
		C550.28,1045.408,552.696,1045.327,554.304,1044.415"/>
	<path fill="#FFFFFF" d="M529.141,1029.624l14.143-8.018c1.6-0.912,1.786-2.312,0.407-3.12l-16.337-9.597
		c-1.378-0.815-3.801-0.734-5.402,0.178l-14.143,8.018c-1.612,0.911-1.797,2.312-0.415,3.12l16.333,9.597
		C525.11,1030.617,527.533,1030.535,529.141,1029.624"/>
	<path fill="#FFFFFF" d="M503.971,1014.832l14.143-8.018c1.608-0.904,1.793-2.305,0.415-3.12l-16.344-9.604
		c-1.371-0.808-3.794-0.726-5.406,0.185l-14.139,8.026c-1.601,0.911-1.79,2.305-0.419,3.112l16.344,9.604
		C499.947,1015.832,502.359,1015.743,503.971,1014.832"/>
	<path fill="#FFFFFF" d="M478.808,1000.04l14.143-8.018c1.601-0.904,1.786-2.312,0.408-3.112l-16.337-9.604
		c-1.382-0.808-3.805-0.726-5.406,0.186l-14.14,8.018c-1.612,0.912-1.797,2.312-0.419,3.113l16.337,9.604
		C474.777,1001.033,477.2,1000.952,478.808,1000.04"/>
	<path fill="#FFFFFF" d="M453.638,985.256l14.14-8.026c1.612-0.912,1.797-2.305,0.418-3.12l-16.344-9.597
		c-1.371-0.815-3.798-0.726-5.398,0.178l-14.151,8.033c-1.608,0.904-1.786,2.297-0.415,3.112l16.344,9.597
		C449.614,986.242,452.026,986.167,453.638,985.256"/>
	<path fill="#FFFFFF" d="M428.475,970.465l14.143-8.018c1.601-0.912,1.786-2.312,0.404-3.127l-16.333-9.595
		c-1.382-0.811-3.806-0.733-5.406,0.178l-14.151,8.024c-1.601,0.911-1.786,2.305-0.407,3.12l16.336,9.597
		C424.44,971.458,426.863,971.376,428.475,970.465"/>
	<path fill="#FFFFFF" d="M403.301,955.673l14.143-8.016c1.612-0.911,1.797-2.308,0.415-3.123l-16.344-9.597
		c-1.371-0.812-3.794-0.734-5.395,0.178l-14.151,8.022c-1.608,0.912-1.786,2.308-0.415,3.124l16.344,9.598
		C399.277,956.666,401.693,956.577,403.301,955.673"/>
	<path fill="#FFFFFF" d="M378.138,940.879l14.136-8.018c1.608-0.904,1.793-2.308,0.415-3.116l-16.337-9.604
		c-1.378-0.804-3.802-0.726-5.403,0.185l-14.15,8.022c-1.601,0.911-1.786,2.308-0.408,3.112l16.337,9.608
		C374.107,941.872,376.53,941.791,378.138,940.879"/>
	<path fill="#FFFFFF" d="M352.968,926.095l14.143-8.026c1.608-0.908,1.794-2.305,0.415-3.12l-16.344-9.597
		c-1.371-0.815-3.794-0.726-5.402,0.178l-14.143,8.029c-1.612,0.911-1.786,2.301-0.415,3.112l16.344,9.597
		C348.944,927.084,351.36,927.003,352.968,926.095"/>
	<path fill="#FFFFFF" d="M327.798,911.304l14.143-8.018c1.608-0.911,1.794-2.312,0.415-3.124l-16.337-9.597
		c-1.378-0.815-3.801-0.733-5.402,0.178l-14.154,8.022c-1.6,0.911-1.786,2.308-0.404,3.12l16.333,9.597
		C323.774,912.297,326.197,912.215,327.798,911.304"/>
	<path fill="#FFFFFF" d="M541.913,1064.831l14.143-8.018c1.601-0.912,1.786-2.305,0.408-3.12l-16.337-9.597
		c-1.382-0.815-3.805-0.734-5.406,0.178l-14.139,8.018c-1.612,0.911-1.797,2.312-0.415,3.112l16.333,9.612
		C537.889,1065.825,540.305,1065.735,541.913,1064.831"/>
	<path fill="#FFFFFF" d="M592.469,1094.548l14.143-8.026c1.608-0.911,1.794-2.305,0.408-3.12l-41.122-24.166
		c-1.371-0.815-3.794-0.726-5.402,0.186l-14.143,8.026c-1.608,0.911-1.786,2.297-0.404,3.112l41.114,24.159
		C588.445,1095.534,590.857,1095.46,592.469,1094.548"/>
	<path fill="#FFFFFF" d="M517.132,1050.27l14.143-8.018c1.608-0.912,1.794-2.312,0.415-3.127l-16.344-9.597
		c-1.371-0.808-3.794-0.726-5.406,0.185l-14.143,8.026c-1.608,0.912-1.786,2.297-0.415,3.112l16.344,9.597
		C513.108,1051.263,515.52,1051.181,517.132,1050.27"/>
	<path fill="#FFFFFF" d="M517.777,1079.667l14.143-8.018c1.608-0.911,1.794-2.312,0.415-3.112l-16.344-9.612
		c-1.371-0.808-3.794-0.719-5.395,0.193l-14.151,8.018c-1.612,0.911-1.789,2.297-0.418,3.112l16.348,9.604
		C513.753,1080.661,516.169,1080.579,517.777,1079.667"/>
	<path fill="#FFFFFF" d="M567.343,1108.791l14.132-8.018c1.608-0.911,1.794-2.312,0.415-3.12l-41.118-24.166
		c-1.378-0.808-3.794-0.726-5.403,0.185l-14.143,8.018c-1.608,0.911-1.786,2.312-0.415,3.12l41.118,24.159
		C563.308,1109.784,565.731,1109.703,567.343,1108.791"/>
	<path fill="#FFFFFF" d="M493.162,1065.017l13.813-7.84c1.701-0.963,1.894-2.431,0.434-3.29l-18.093-10.627
		c-1.452-0.86-4.009-0.771-5.706,0.193l-13.813,7.833c-1.701,0.956-1.893,2.438-0.434,3.283l18.093,10.642
		C488.909,1066.054,491.465,1065.98,493.162,1065.017"/>
	<path fill="#FFFFFF" d="M492.347,1035.7l14.143-8.011c1.612-0.911,1.797-2.305,0.415-3.12l-16.333-9.597
		c-1.382-0.815-3.805-0.733-5.406,0.178l-14.151,8.018c-1.601,0.911-1.786,2.312-0.408,3.127l16.337,9.589
		C488.323,1036.701,490.747,1036.612,492.347,1035.7"/>
	<path fill="#FFFFFF" d="M465.958,1049.217l14.139-8.018c1.605-0.911,1.79-2.312,0.408-3.127l-117.162-68.852
		c-1.378-0.808-3.794-0.726-5.403,0.186l-14.143,8.018c-1.612,0.912-1.797,2.312-0.415,3.12l117.162,68.852
		C461.934,1050.21,464.346,1050.121,465.958,1049.217"/>
	<path fill="#FFFFFF" d="M467.577,1021.146l14.14-8.026c1.601-0.911,1.786-2.305,0.408-3.12l-16.337-9.597
		c-1.378-0.815-3.802-0.726-5.403,0.185l-14.143,8.026c-1.608,0.912-1.794,2.297-0.415,3.113l16.337,9.597
		C463.542,1022.139,465.965,1022.057,467.577,1021.146"/>
	<path fill="#FFFFFF" d="M442.792,1006.576l14.143-8.011c1.608-0.911,1.797-2.312,0.415-3.12l-16.344-9.597
		c-1.371-0.815-3.794-0.733-5.402,0.178l-14.143,8.018c-1.612,0.911-1.786,2.312-0.415,3.12l16.344,9.597
		C438.769,1007.577,441.184,1007.488,442.792,1006.576"/>
	<path fill="#FFFFFF" d="M418.011,992.022l14.143-8.026c1.608-0.912,1.794-2.305,0.415-3.12l-16.337-9.597
		c-1.378-0.815-3.801-0.726-5.402,0.185l-14.151,8.026c-1.612,0.911-1.79,2.297-0.408,3.112l16.336,9.597
		C413.987,993.008,416.411,992.933,418.011,992.022"/>
	<path fill="#FFFFFF" d="M393.238,977.453l14.143-8.011c1.601-0.911,1.786-2.312,0.408-3.127l-16.336-9.589
		c-1.378-0.815-3.806-0.741-5.406,0.17l-14.14,8.026c-1.612,0.912-1.797,2.305-0.419,3.12l16.337,9.597
		C389.206,978.453,391.629,978.364,393.238,977.453"/>
	<path fill="#FFFFFF" d="M368.456,962.898l14.143-8.026c1.608-0.912,1.793-2.305,0.404-3.122l-16.333-9.597
		c-1.371-0.811-3.794-0.726-5.406,0.178l-14.143,8.029c-1.608,0.911-1.786,2.303-0.415,3.118l16.344,9.589
		C364.432,963.884,366.844,963.81,368.456,962.898"/>
	<path fill="#FFFFFF" d="M343.671,948.327l14.143-8.011c1.612-0.912,1.797-2.308,0.415-3.124l-16.333-9.604
		c-1.382-0.804-3.805-0.726-5.406,0.185l-14.151,8.022c-1.608,0.912-1.786,2.308-0.408,3.113l16.337,9.604
		C339.647,949.328,342.064,949.238,343.671,948.327"/>
	<path fill="#FFFFFF" d="M318.901,933.769l14.139-8.022c1.601-0.908,1.786-2.308,0.408-3.12l-16.337-9.597
		c-1.378-0.815-3.802-0.726-5.402,0.178l-14.151,8.029c-1.601,0.912-1.786,2.301-0.408,3.112l16.337,9.597
		C314.866,934.762,317.29,934.68,318.901,933.769"/>
	<path fill="#FFFFFF" d="M293.631,918.922l14.143-8.015c1.608-0.912,1.793-2.316,0.415-3.124l-16.344-9.604
		c-1.371-0.804-3.794-0.726-5.406,0.185l-14.14,8.022c-1.6,0.911-1.789,2.308-0.419,3.116l16.348,9.604
		C289.607,919.911,292.023,919.833,293.631,918.922"/>
	<path fill="#FFFFFF" d="M339.34,974.799l14.143-8.011c1.601-0.911,1.786-2.319,0.404-3.127l-16.333-9.604
		c-1.382-0.8-3.805-0.726-5.406,0.186l-14.143,8.026c-1.608,0.911-1.793,2.305-0.415,3.112l16.337,9.604
		C335.305,975.793,337.728,975.711,339.34,974.799"/>
	<path fill="#FFFFFF" d="M314.559,960.245l14.14-8.026c1.612-0.91,1.797-2.307,0.419-3.122l-16.348-9.597
		c-1.371-0.812-3.794-0.733-5.403,0.178l-14.143,8.029c-1.601,0.911-1.786,2.301-0.415,3.112l16.344,9.595
		C310.531,961.231,312.947,961.149,314.559,960.245"/>
	<path fill="#FFFFFF" d="M289.774,945.674l14.143-8.011c1.608-0.911,1.797-2.308,0.415-3.123l-16.336-9.604
		c-1.379-0.804-3.802-0.726-5.403,0.185l-14.151,8.022c-1.6,0.912-1.786,2.308-0.408,3.112l16.337,9.604
		C285.75,946.674,288.166,946.586,289.774,945.674"/>
	<path fill="#FFFFFF" d="M265.17,931.02l13.806-7.826c1.697-0.967,1.893-2.442,0.434-3.302l-18.186-10.682
		c-1.46-0.867-4.024-0.778-5.721,0.185l-13.806,7.826c-1.701,0.975-1.893,2.442-0.433,3.302l18.182,10.693
		C260.906,932.072,263.47,931.983,265.17,931.02"/>
	<path fill="#FFFFFF" d="M237.355,914.868l14.139-8.022c1.612-0.9,1.797-2.308,0.419-3.112l-16.337-9.604
		c-1.378-0.804-3.801-0.726-5.406,0.185l-14.151,8.022c-1.6,0.911-1.786,2.308-0.404,3.112l16.333,9.608
		C233.331,915.861,235.754,915.78,237.355,914.868"/>
	<path fill="#FFFFFF" d="M212.021,899.984l14.143-8.022c1.6-0.911,1.786-2.308,0.408-3.12l-16.337-9.596
		c-1.378-0.815-3.801-0.734-5.402,0.174l-14.143,8.033c-1.608,0.9-1.797,2.297-0.415,3.112l16.337,9.597
		C207.998,900.973,210.413,900.895,212.021,899.984"/>
	<path fill="#FFFFFF" d="M268.609,904.223l14.143-8.022c1.608-0.911,1.797-2.308,0.415-3.123l-22.465-13.195
		c-1.378-0.815-3.802-0.737-5.402,0.185l-14.143,8.011c-1.608,0.911-1.793,2.308-0.415,3.123l22.465,13.195
		C264.585,905.212,267.001,905.13,268.609,904.223"/>
	<path fill="#FFFFFF" d="M237.151,885.726l14.143-8.011c1.608-0.911,1.794-2.319,0.415-3.123l-16.344-9.604
		c-1.371-0.804-3.794-0.726-5.395,0.186l-14.154,8.022c-1.601,0.912-1.786,2.308-0.415,3.112l16.344,9.608
		C233.127,886.719,235.539,886.637,237.151,885.726"/>
	<path fill="#FFFFFF" d="M302.998,896.719l14.143-8.011c1.601-0.911,1.786-2.319,0.404-3.124l-32.855-19.308
		c-1.382-0.812-3.794-0.734-5.406,0.178l-14.14,8.022c-1.612,0.911-1.79,2.308-0.419,3.124l32.859,19.304
		C298.963,897.712,301.387,897.631,302.998,896.719"/>
	<path fill="#FFFFFF" d="M641.016,1067.01l14.143-8.018c1.608-0.911,1.794-2.312,0.415-3.12l-22.039-12.946
		c-1.382-0.808-3.794-0.733-5.406,0.178l-14.143,8.026c-1.608,0.912-1.786,2.297-0.415,3.112l22.043,12.946
		C636.992,1068.003,639.408,1067.922,641.016,1067.01"/>
	<path fill="#FFFFFF" d="M616.453,1080.935l14.143-8.011c1.612-0.912,1.797-2.312,0.415-3.128l-27.734-16.296
		c-1.371-0.808-3.794-0.726-5.406,0.185l-14.14,8.018c-1.601,0.912-1.79,2.312-0.418,3.112l27.738,16.303
		C612.429,1081.935,614.845,1081.846,616.453,1080.935"/>
	<path fill="#FFFFFF" d="M584.484,1033.781l14.139-8.018c1.601-0.912,1.786-2.312,0.407-3.112l-16.336-9.604
		c-1.378-0.808-3.802-0.726-5.402,0.185l-14.143,8.018c-1.608,0.912-1.793,2.312-0.415,3.112l16.337,9.604
		C580.449,1034.774,582.872,1034.693,584.484,1033.781"/>
	<path fill="#FFFFFF" d="M559.699,1019.226l14.143-8.026c1.608-0.912,1.793-2.305,0.408-3.12l-16.337-9.597
		c-1.371-0.815-3.794-0.733-5.402,0.178l-14.143,8.026c-1.612,0.904-1.786,2.305-0.415,3.12l16.344,9.597
		C555.675,1020.219,558.091,1020.138,559.699,1019.226"/>
	<path fill="#FFFFFF" d="M534.918,1004.657l14.143-8.018c1.608-0.911,1.794-2.312,0.415-3.112l-16.344-9.604
		c-1.371-0.808-3.794-0.726-5.395,0.186l-14.151,8.018c-1.612,0.912-1.79,2.312-0.408,3.113l16.333,9.604
		C530.894,1005.65,533.306,1005.569,534.918,1004.657"/>
	<path fill="#FFFFFF" d="M510.144,990.102l14.132-8.026c1.612-0.911,1.797-2.305,0.419-3.12l-16.337-9.597
		c-1.382-0.815-3.805-0.733-5.406,0.178l-14.151,8.018c-1.601,0.911-1.786,2.312-0.408,3.127l16.337,9.597
		C506.113,991.088,508.536,991.014,510.144,990.102"/>
	<path fill="#FFFFFF" d="M485.363,975.533l14.143-8.018c1.608-0.911,1.793-2.312,0.404-3.12l-16.333-9.604
		c-1.382-0.808-3.794-0.719-5.406,0.185l-14.143,8.026c-1.608,0.911-1.786,2.297-0.415,3.112l16.337,9.604
		C481.339,976.526,483.751,976.445,485.363,975.533"/>
	<path fill="#FFFFFF" d="M460.578,960.979l14.143-8.026c1.612-0.911,1.797-2.307,0.415-3.122l-16.344-9.597
		c-1.371-0.812-3.794-0.734-5.395,0.178l-14.151,8.022c-1.608,0.911-1.786,2.308-0.408,3.123l16.337,9.591
		C456.554,961.964,458.97,961.89,460.578,960.979"/>
	<path fill="#FFFFFF" d="M435.797,946.408l14.143-8.022c1.608-0.908,1.794-2.308,0.415-3.112l-16.337-9.604
		c-1.378-0.804-3.801-0.726-5.402,0.185l-14.151,8.022c-1.601,0.911-1.786,2.308-0.408,3.112l16.336,9.604
		C431.773,947.401,434.196,947.319,435.797,946.408"/>
	<path fill="#FFFFFF" d="M411.023,931.849l14.143-8.022c1.601-0.908,1.786-2.308,0.408-3.12l-16.336-9.597
		c-1.378-0.815-3.802-0.734-5.403,0.178l-14.143,8.022c-1.612,0.912-1.797,2.308-0.415,3.12l16.333,9.597
		C406.999,932.842,409.415,932.761,411.023,931.849"/>
	<path fill="#FFFFFF" d="M386.242,917.284l14.143-8.022c1.608-0.912,1.793-2.308,0.415-3.112l-16.344-9.604
		c-1.371-0.815-3.794-0.726-5.406,0.185l-14.14,8.022c-1.612,0.911-1.789,2.297-0.418,3.112l16.348,9.604
		C382.218,918.273,384.634,918.195,386.242,917.284"/>
	<path fill="#FFFFFF" d="M360.735,902.292l14.143-8.011c1.608-0.911,1.794-2.319,0.415-3.123l-16.344-9.604
		c-1.371-0.804-3.794-0.726-5.395,0.186l-14.151,8.022c-1.601,0.912-1.79,2.308-0.408,3.112l16.333,9.604
		C356.71,903.285,359.123,903.204,360.735,902.292"/>
	<path fill="#FFFFFF" d="M335.546,887.486l14.143-8.011c1.608-0.911,1.794-2.308,0.404-3.123l-16.333-9.604
		c-1.371-0.804-3.794-0.726-5.406,0.185l-14.143,8.022c-1.608,0.911-1.786,2.308-0.415,3.112l16.344,9.604
		C331.522,888.486,333.934,888.397,335.546,887.486"/>
	<path fill="#FFFFFF" d="M310.764,872.927l14.14-8.022c1.612-0.908,1.797-2.308,0.415-3.12l-16.344-9.597
		c-1.371-0.815-3.794-0.734-5.395,0.178l-14.151,8.029c-1.608,0.911-1.786,2.301-0.408,3.112l16.336,9.597
		C306.737,873.92,309.153,873.839,310.764,872.927"/>
	<path fill="#FFFFFF" d="M392,892.306l14.143-8.011c1.608-0.911,1.794-2.319,0.415-3.123l-16.337-9.604
		c-1.378-0.804-3.801-0.726-5.402,0.185l-14.154,8.022c-1.6,0.911-1.786,2.308-0.404,3.112l16.333,9.604
		C387.976,893.299,390.399,893.218,392,892.306"/>
	<path fill="#FFFFFF" d="M367.226,877.748l14.143-8.022c1.601-0.912,1.786-2.308,0.408-3.12l-16.337-9.597
		c-1.382-0.815-3.805-0.734-5.406,0.178l-14.14,8.029c-1.612,0.911-1.797,2.301-0.419,3.112l16.337,9.597
		C363.202,878.741,365.618,878.66,367.226,877.748"/>
	<path fill="#FFFFFF" d="M342.445,863.183l14.14-8.015c1.612-0.908,1.797-2.316,0.419-3.12l-23.173-13.621
		c-1.389-0.806-3.805-0.726-5.413,0.186l-14.143,8.015c-1.6,0.919-1.786,2.316-0.408,3.12l23.173,13.621
		C338.421,864.172,340.833,864.094,342.445,863.183"/>
	<path fill="#FFFFFF" d="M310.257,844.274l14.143-8.024c1.612-0.909,1.797-2.308,0.415-3.122l-16.344-9.597
		c-1.371-0.813-3.794-0.734-5.402,0.178l-14.143,8.022c-1.601,0.911-1.786,2.308-0.415,3.122l16.344,9.595
		C306.233,845.264,308.649,845.186,310.257,844.274"/>
	<path fill="#FFFFFF" d="M285.698,858.195l14.143-8.015c1.608-0.911,1.794-2.308,0.415-3.12l-16.337-9.606
		c-1.378-0.806-3.801-0.726-5.402,0.185l-14.154,8.02c-1.6,0.911-1.786,2.308-0.404,3.116l16.333,9.604
		C281.674,859.192,284.086,859.107,285.698,858.195"/>
	<path fill="#FFFFFF" d="M261.136,872.123l14.143-8.022c1.608-0.9,1.797-2.308,0.415-3.112l-16.337-9.604
		c-1.378-0.804-3.801-0.726-5.402,0.185l-14.151,8.022c-1.601,0.911-1.786,2.308-0.408,3.112l16.337,9.604
		C257.111,873.116,259.535,873.035,261.136,872.123"/>
	<polygon fill="#67C8EF" points="995.567,814.176 376.867,456.97 376.867,92.547 995.567,449.754 	"/>
	<path fill="#6B696C" d="M700.523,718.555c0-4.997,2.935-7.468,6.914-6.473c-3.086-7.601-8.615-14.717-14.991-18.393
		c-9.719-5.616-17.6-1.119-17.6,10.04c0,11.157,7.881,24.759,17.6,30.371c6.377,3.675,11.905,2.951,14.991-1.075
		C703.458,729.407,700.523,723.551,700.523,718.555"/>
	<g opacity="0.45">
		<g>
			<defs>
				<rect id="SVGID_1_" x="669.009" y="217.46" width="354.558" height="639.956"/>
			</defs>
			<clipPath id="SVGID_2_">
				<use xlink:href="#SVGID_1_"  overflow="visible"/>
			</clipPath>
			<path clip-path="url(#SVGID_2_)" fill="#FFFFFF" d="M1023.568,481.639c0-32.85-23.21-72.88-51.837-89.41L669.009,217.46
				c49.307,98.546,115.172,267.281,164.146,530.016l190.413,109.941V481.639z"/>
		</g>
	</g>
</g>
</svg>
